PathFileType	4	(X/Y/Z)	D:\TRACE\v60_Jaco2_6-2-23\JustBodyDRS_Motion1_1-platform.trc
DataRate	CameraRate	NumFrames	NumMarkers	Units	OrigDataRate	OrigDataStartFrame	OrigNumFrames
100.00	100.00	      62	5	mm	100.00	938	      7500
Frame#	Time	Left_Front			Right_Front			Left_Aft			Right_Aft			Post			
		X1	Y1	Z1	X2	Y2	Z2	X3	Y3	Z3	X4	Y4	Z4	X5	Y5	Z5	

938	9.370	-800.63770	8.76778	-638.99426	769.27631	10.06438	-644.38580	-708.73816	7.83985	496.13220	733.15314	7.05709	505.99011	-14.54267	1308.02039	-961.80609	
939	9.380	-800.68103	8.74598	-638.88507	769.25195	10.08589	-644.38660	-708.73859	7.82833	496.12988	733.13135	7.01942	505.98972	-14.63729	1308.00732	-961.75885	
940	9.390	-800.67694	8.72761	-638.92841	769.18884	10.05904	-644.42609	-708.73511	7.81567	496.13846	733.12421	7.01124	505.99289	-14.59843	1307.99829	-961.80420	
941	9.400	-800.65277	8.79327	-638.87805	769.32452	10.09205	-644.33575	-708.78766	7.81456	496.11392	733.18140	7.04898	505.98175	-14.52435	1307.97949	-961.81000	
942	9.410	-800.64636	8.77244	-638.94122	769.26160	10.07920	-644.36334	-708.78864	7.87861	496.12845	733.17847	7.05404	505.96869	-14.51342	1307.99292	-961.78217	
943	9.420	-800.63147	8.78380	-638.92004	769.24323	10.06334	-644.37720	-708.76587	7.83822	496.11746	733.13629	7.03265	505.97766	-14.59136	1307.99646	-961.76843	
944	9.430	-800.64789	8.76954	-638.89874	769.26117	10.06265	-644.32831	-708.78162	7.83441	496.14813	733.11938	7.04273	506.01712	-14.56323	1307.98657	-961.78186	
945	9.440	-800.66522	8.69715	-638.92920	769.27460	10.06103	-644.34515	-708.77405	7.80697	496.14511	733.06818	7.02049	506.00034	-14.57565	1307.98169	-961.79462	
946	9.450	-800.64325	8.78720	-638.85852	769.32574	10.09784	-644.31641	-708.76697	7.85194	496.15829	733.12506	7.04141	505.99036	-14.61724	1308.05298	-961.79791	
947	9.460	-800.65881	8.81124	-638.83032	769.31219	10.09334	-644.33899	-708.71509	7.80921	496.15976	733.19855	7.06531	505.96185	-14.58095	1308.00903	-961.77966	
948	9.470	-800.62372	8.74648	-638.98663	769.32983	10.09604	-644.33533	-708.75934	7.84454	496.15707	733.18060	7.01902	505.97211	-14.64239	1308.03882	-961.81146	
949	9.480	-800.63391	8.77281	-638.92950	769.29596	10.07438	-644.36462	-708.79169	7.85017	496.13757	733.14948	7.03452	505.99521	-14.64275	1308.01282	-961.79083	
950	9.490	-800.65112	8.76818	-638.90167	769.24457	10.10380	-644.35986	-708.75745	7.84718	496.15494	733.12610	7.01690	506.01974	-14.59124	1308.01782	-961.76508	
951	9.500	-800.65472	8.78658	-639.00983	769.25769	10.02385	-644.38104	-708.77777	7.82444	496.13077	733.10187	7.03990	505.99426	-14.55762	1308.01807	-961.78931	
952	9.510	-800.62134	8.74002	-638.99176	769.22174	10.08151	-644.38739	-708.78351	7.85126	496.13287	733.09528	7.02537	505.98413	-14.56959	1308.02576	-961.78455	
953	9.520	-800.63391	8.76986	-638.96350	769.29303	10.06227	-644.34869	-708.76361	7.82018	496.15552	733.17224	7.05938	505.95789	-14.58059	1308.00879	-961.80450	
954	9.530	-800.65436	8.73603	-638.88177	769.30457	10.06041	-644.33282	-708.77600	7.82728	496.12238	733.10413	7.01756	505.97009	-14.50375	1307.95593	-961.79749	
955	9.540	-800.63184	8.73949	-638.94104	769.31470	10.09205	-644.34479	-708.69836	7.82136	496.16693	733.12732	7.01868	505.99359	-14.56854	1307.99609	-961.81348	
956	9.550	-800.60693	8.71733	-638.93872	769.25641	10.03298	-644.39813	-708.79688	7.86944	496.11624	733.14294	7.02163	505.99167	-14.49629	1308.02161	-961.78619	
957	9.560	-800.66040	8.80010	-639.00275	769.32715	10.07451	-644.31372	-708.77631	7.85727	496.15546	733.12695	7.03696	505.97729	-14.52764	1308.02405	-961.79272	
958	9.570	-800.61633	8.73551	-638.98151	769.27966	10.07063	-644.37262	-708.77625	7.85999	496.13632	733.10895	7.02054	505.96881	-14.47585	1307.96838	-961.78741	
959	9.580	-800.70850	8.76462	-638.86969	769.36292	10.01288	-644.35852	-708.70697	7.83050	496.15796	733.07532	6.98278	505.99548	-14.49388	1307.98279	-961.81403	
960	9.590	-800.67554	8.71289	-638.91901	769.18762	10.06453	-644.35144	-708.78009	7.84502	496.09705	733.10608	7.00193	506.00089	-14.49247	1307.95789	-961.77753	
961	9.600	-800.64258	8.75194	-638.93188	769.26624	10.06406	-644.40588	-708.73846	7.79483	496.15546	733.16748	7.01837	505.96478	-14.39593	1307.95776	-961.81897	
962	9.610	-800.65082	8.78824	-638.92450	769.33386	10.06131	-644.35376	-708.74670	7.84500	496.15030	733.16632	7.01975	505.97089	-14.51158	1307.97742	-961.80402	
963	9.620	-800.64526	8.78710	-638.97760	769.33044	10.07634	-644.35962	-708.74921	7.83781	496.08893	733.17590	7.01602	505.96594	-14.52841	1308.02527	-961.81055	
964	9.630	-800.65277	8.74155	-638.92621	769.23218	10.08559	-644.36127	-708.77710	7.87417	496.13565	733.10303	7.01861	506.01205	-14.60170	1308.01001	-961.78857	
965	9.640	-800.64276	8.77309	-638.94897	769.22693	10.05334	-644.40582	-708.72021	7.83493	496.14078	733.14819	7.04649	505.98526	-14.55178	1307.99597	-961.75909	
966	9.650	-800.64612	8.75465	-638.92175	769.32837	10.03395	-644.35956	-708.78693	7.86732	496.16037	733.11829	7.04278	506.00485	-14.53423	1308.01367	-961.82397	
967	9.660	-800.61499	8.75901	-638.92896	769.35199	10.00887	-644.33972	-708.77759	7.84405	496.11383	733.16718	7.06231	505.96500	-14.53654	1308.00134	-961.78040	
968	9.670	-800.57843	8.74649	-638.97717	769.27283	10.09143	-644.37238	-708.79114	7.88082	496.11810	733.20776	7.06633	505.94843	-14.52898	1308.01990	-961.79218	
969	9.680	-800.61469	8.76883	-638.96240	769.28302	10.06385	-644.38007	-708.73828	7.84251	496.14838	733.18390	7.03729	505.97345	-14.53246	1308.02722	-961.83228	
970	9.690	-800.67749	8.79724	-638.92798	769.24213	10.06517	-644.38422	-708.71722	7.80844	496.19562	733.14917	7.03798	505.99765	-14.57990	1308.00867	-961.78217	
971	9.700	-800.67639	8.76924	-638.85181	769.27167	10.07101	-644.33258	-708.75543	7.80825	496.15869	733.11993	7.00313	505.97610	-14.57338	1307.98914	-961.78625	
972	9.710	-800.65820	8.78206	-638.90643	769.26880	10.03900	-644.38074	-708.75244	7.82803	496.13293	733.14667	7.02991	506.00073	-14.53202	1308.00537	-961.82190	
973	9.720	-800.65674	8.75251	-638.94208	769.28961	10.07569	-644.34076	-708.79382	7.87605	496.11749	733.11554	7.02175	505.98306	-14.52009	1307.99304	-961.78864	
974	9.730	-800.64587	8.68510	-638.90839	769.29224	10.05133	-644.37598	-708.74036	7.83368	496.10385	733.11865	7.03927	505.98694	-14.53779	1307.99719	-961.80383	
975	9.740	-800.67603	8.76968	-638.86414	769.21753	10.04301	-644.38446	-708.74799	7.83219	496.11749	733.11975	7.07206	505.99271	-14.53384	1307.97559	-961.81274	
976	9.750	-800.72186	8.78409	-638.85748	769.28595	10.08279	-644.31287	-708.71643	7.82681	496.16046	733.07910	7.01595	505.99323	-14.52604	1307.97717	-961.79761	
977	9.760	-800.65240	8.77973	-638.88544	769.31519	10.07273	-644.34857	-708.73688	7.85192	496.16641	733.16559	7.05376	505.98032	-14.48702	1307.98132	-961.82489	
978	9.770	-800.64532	8.76843	-638.94397	769.28229	10.09379	-644.38562	-708.74121	7.81615	496.11917	733.16870	7.03790	505.97757	-14.55348	1307.97900	-961.79730	
979	9.780	-800.64008	8.74667	-639.00983	769.35071	10.06789	-644.29968	-708.79321	7.82538	496.11847	733.17712	7.05256	505.96622	-14.45128	1307.94629	-961.76208	
980	9.790	-800.61908	8.72635	-638.93488	769.28491	10.06497	-644.40326	-708.75226	7.81753	496.15982	733.10242	7.03698	505.98575	-14.52494	1307.97473	-961.77594	
981	9.800	-800.68701	8.76891	-638.91516	769.25214	10.06776	-644.35278	-708.78815	7.85755	496.15143	733.11700	7.05933	506.00851	-14.55430	1307.98828	-961.80243	
982	9.810	-800.65308	8.73865	-638.91266	769.25879	10.06041	-644.36786	-708.74158	7.80492	496.12305	733.12280	7.03385	505.96414	-14.58269	1308.00427	-961.76318	
983	9.820	-800.64301	8.76583	-638.94751	769.24078	10.09419	-644.37354	-708.77325	7.86732	496.11920	733.14728	7.04080	505.97699	-14.57935	1308.01245	-961.77142	
984	9.830	-800.62250	8.75927	-638.97784	769.35559	10.07446	-644.36279	-708.73029	7.85695	496.11292	733.18323	7.04278	505.94699	-14.51964	1308.01929	-961.77594	
985	9.840	-800.64069	8.75526	-638.93817	769.25952	10.08791	-644.41254	-708.76038	7.85003	496.15131	733.20374	7.06493	505.96841	-14.52955	1307.99341	-961.76733	
986	9.850	-800.67279	8.74979	-638.89557	769.32428	10.03518	-644.36011	-708.70825	7.83254	496.14059	733.14563	7.01831	505.95303	-14.60661	1308.00854	-961.78540	
987	9.860	-800.67957	8.73262	-638.87585	769.23474	10.07738	-644.39490	-708.75531	7.80916	496.10342	733.12988	7.01401	505.97327	-14.53833	1307.97546	-961.79169	
988	9.870	-800.66296	8.78443	-638.88818	769.26807	10.09193	-644.36609	-708.75183	7.82308	496.12405	733.14825	7.06573	505.97937	-14.53571	1307.97839	-961.78632	
989	9.880	-800.65674	8.81723	-638.98401	769.21381	10.06059	-644.37885	-708.74384	7.84208	496.14362	733.16278	7.01995	505.95444	-14.55822	1308.00635	-961.76923	
990	9.890	-800.64063	8.71695	-638.98083	769.33356	10.04510	-644.38629	-708.73047	7.82841	496.14282	733.21075	7.03356	505.96378	-14.53290	1308.01208	-961.82428	
991	9.900	-800.67004	8.79424	-638.95801	769.25824	10.06906	-644.38800	-708.74176	7.84277	496.15027	733.19708	7.03930	505.97028	-14.50977	1308.02893	-961.80548	
992	9.910	-800.64081	8.76673	-638.90625	769.28571	10.07320	-644.35907	-708.72552	7.83093	496.14291	733.16626	7.02999	505.96429	-14.49978	1307.99194	-961.78986	
993	9.920	-800.66583	8.74244	-638.88892	769.27856	10.08866	-644.33331	-708.76367	7.82065	496.13910	733.17316	7.01654	506.00452	-14.52915	1307.94324	-961.79059	
994	9.930	-800.66180	8.74279	-638.89490	769.36792	10.03334	-644.35938	-708.75916	7.80413	496.11002	733.10895	7.02003	506.01498	-14.55851	1307.96069	-961.79590	
995	9.940	-800.64679	8.75651	-638.87408	769.30585	10.05727	-644.36670	-708.77393	7.84901	496.11990	733.17993	7.03074	505.99271	-14.49012	1307.99048	-961.80524	
996	9.950	-800.71014	8.75785	-638.89899	769.27643	10.05644	-644.34723	-708.77588	7.84622	496.08246	733.10925	7.01256	505.99149	-14.62181	1307.99414	-961.76227	
997	9.960	-800.64374	8.79854	-638.91132	769.23889	10.08389	-644.35840	-708.76892	7.83497	496.10797	733.12378	7.03397	505.98547	-14.55694	1308.00366	-961.79578	
998	9.970	-800.66229	8.76879	-638.85083	769.30768	10.07203	-644.35114	-708.78082	7.88153	496.12012	733.19751	7.05706	505.97623	-14.52036	1308.01245	-961.79510	
999	9.980	-800.63867	8.76975	-638.93933	769.22589	10.07003	-644.36536	-708.75244	7.85449	496.11258	733.17401	7.00481	505.97827	-14.57228	1308.01624	-961.77057	
